<svg width="160" height="160" viewBox="0 0 160 160" fill="none" xmlns="http://www.w3.org/2000/svg">
  <rect width="160" height="160" rx="80" fill="black" />
  <path
    d="M37 45C37 49.2186 37.0975 53.4504 36.9444 57.6667C36.6562 65.6099 36.679 73.5431 36.4583 81.4861C36.2601 88.6211 35.6596 96.1075 34.375 103.139C33.9813 105.294 33.4064 107.504 33.25 109.694C33.2115 110.233 31.9972 106.779 31.8611 106.361C30.0986 100.943 29.082 95.4259 28.4028 89.7778C27.0563 78.581 28.1046 67.4085 31.6667 56.7222C33.207 52.1013 35.0689 47.2871 38.7778 43.9445C42.3221 40.7502 46.6049 40.5811 51.1389 40.5139C56.5091 40.4343 61.1634 40.5424 65.9722 43.1806C70.7317 45.7917 75.9831 50.3221 76.2222 56.1945C76.3968 60.4812 73.3345 62.9555 69.75 64.5833C63.303 67.5111 55.8218 67.9507 48.9028 68.8611C44.3953 69.4542 40.2627 69.75 35.75 69.75"
    stroke="#FCBCBC" stroke-linecap="round" stroke-linejoin="round" />
  <path
    d="M113 46.25C113.06 49.6608 113.37 53.0612 113.444 56.4722C113.623 64.5879 113.5 72.7161 113.5 80.8333C113.5 86.3794 113.523 91.9261 113.5 97.4722C113.489 100.107 113.435 102.796 113 105.403C112.686 107.288 112.232 101.658 111.889 99.7778C110.936 94.5541 109.939 89.4219 110.056 84.0833C110.286 73.502 112.94 61.7137 119.542 53.1528C122.423 49.4159 126.964 45.8503 131.972 46.3056C134.947 46.5759 137.908 48.4671 140.389 49.9861C143.171 51.6895 144.993 53.8937 145.639 57.1389C147.596 66.9793 137.285 73.6658 129.194 76.1389C121.078 78.6198 113.087 77.75 104.75 77.75"
    stroke="#517AE3" stroke-linecap="round" stroke-linejoin="round" />
</svg>