<svg width="32" height="32" viewBox="0 0 32 32" fill="none" xmlns="http://www.w3.org/2000/svg">
<circle cx="16" cy="16" r="16" fill="#2E333A"/>
<path d="M13.4297 18.3672V25H11.0625V6.8125H15.5859C17.4453 6.8125 18.8008 7.02344 19.6523 7.44531C20.5039 7.85937 21.1562 8.46875 21.6094 9.27344C22.0625 10.0781 22.2891 10.9766 22.2891 11.9688C22.2891 13.1328 21.9844 14.2188 21.375 15.2266C20.7656 16.2344 19.9141 17.0117 18.8203 17.5586C17.7344 18.0977 16.2578 18.3672 14.3906 18.3672H13.4297ZM13.4297 16.5508H14.4492C15.9102 16.5508 16.9961 16.3633 17.707 15.9883C18.418 15.6055 18.9648 15.0586 19.3477 14.3477C19.7305 13.6367 19.9219 12.8672 19.9219 12.0391C19.9219 10.9922 19.5781 10.1641 18.8906 9.55469C18.2109 8.94531 16.8633 8.64062 14.8477 8.64062H13.4297V16.5508Z" fill="#CDD9E5"/>
</svg>
